<svg xmlns="http://www.w3.org/2000/svg" width="1200" height="700" viewBox="0 0 1200 700">
  <rect width="1200" height="700" fill="#fffdf8"/>
  <text x="70" y="90" font-family="Arial, sans-serif" font-size="28" fill="#55616b">CASE-A01</text>
  <line x1="65" y1="145" x2="1135" y2="145" stroke="#dce3e8" stroke-width="2"/>
  <text x="100" y="270" font-family="cursive" font-size="68" font-style="italic" fill="#1d3557">We</text>
  <path d="M 240 232 C 245 250 250 267 257 273 C 265 279 270 243 276 232 C 281 251 286 270 294 274 C 302 278 307 248 313 231 C 319 249 324 266 331 270 C 337 273 341 262 345 249 C 348 233 366 229 377 240 C 390 253 383 272 369 276 C 353 281 343 269 346 251 C 349 239 361 235 372 241 C 379 246 382 254 387 260 C 391 264 395 259 396 248 C 397 237 404 232 412 238 C 420 244 418 253 423 254 C 429 255 435 248 440 242 M 445 205 L 445 274 M 445 252 L 467 234 M 453 250 L 472 274" fill="none" stroke="#1d3557" stroke-width="8" stroke-linecap="round" stroke-linejoin="round"/>
  <text x="488" y="270" font-family="cursive" font-size="68" font-style="italic" fill="#1d3557">together after school.</text>
  <line x1="75" y1="315" x2="1125" y2="315" stroke="#e7ecef" stroke-width="2"/>
</svg>
